<svg width="100" height="100" viewBox="0 0 100 100" fill="none" xmlns="http://www.w3.org/2000/svg">
<path d="M42.8469 2.92893C46.7521 -0.976311 53.0842 -0.976311 56.9895 2.92893L96.9074 42.8469C100.813 46.7521 100.813 53.0842 96.9074 56.9895L59.009 94.8869C58.9399 94.0742 58.9045 93.1826 58.9045 92.2121C58.9045 88.2171 59.7034 84.3519 61.301 80.6174C62.9874 76.796 64.8073 73.2351 66.76 69.9348C68.2689 67.4161 69.9106 64.8538 71.6858 62.2483C73.5497 59.5559 75.1033 56.9505 76.3459 54.4319C77.6772 51.8265 78.3429 49.525 78.343 47.5276C78.343 46.0512 77.9876 45.0526 77.2776 44.5315C76.5675 44.0104 75.7246 43.7493 74.7483 43.7492C72.7068 43.7492 70.6207 44.4446 68.4905 45.8342C66.4492 47.1369 64.4518 48.874 62.4992 51.0451C60.6355 53.1294 58.8603 55.3439 57.174 57.6887C55.6652 59.7731 53.9784 62.3355 52.1145 65.3752C50.3394 68.328 49.1861 70.9336 48.6535 73.1916V70.716C48.7423 69.7608 48.8755 68.5879 49.053 67.1985C49.2306 65.9825 49.8072 63.811 50.7834 60.6848C51.7597 57.5583 52.914 54.1281 54.2453 50.3938C55.5767 46.5724 56.819 43.1415 57.9729 40.1018C58.7717 37.9307 59.4815 35.9764 60.1028 34.2395C60.8128 32.4156 61.1682 30.8518 61.1682 29.549C61.1681 26.6831 60.2802 24.5988 58.5051 23.2961C56.8188 21.9935 55.3541 21.342 54.1115 21.342C52.159 21.3421 50.2948 22.1235 48.5198 23.6867C46.7446 25.1632 45.1469 27.0743 43.7268 29.4192C42.3068 31.764 41.0643 34.1956 39.9992 36.7141C38.4904 40.4486 37.248 44.3138 36.2717 48.3088C35.2954 52.217 34.4074 56.5595 33.6086 61.3362C33.2536 60.1204 32.7209 58.514 32.011 56.5168C31.3897 54.4324 30.6349 52.3473 29.7473 50.2629C28.8597 48.1787 27.8396 46.4415 26.6858 45.052C25.5319 43.5755 24.2886 42.8371 22.9573 42.8371C21.9812 42.8372 21.4934 43.0113 21.4934 43.3586C21.4935 43.5323 21.6707 43.7064 22.0256 43.8801C22.3806 44.0538 22.6029 44.2269 22.6916 44.4006C23.6679 45.2691 24.3337 46.2246 24.6887 47.2668C25.0437 48.3089 25.3541 49.3077 25.6203 50.2629C26.5967 53.7369 27.3955 57.7321 28.0168 62.2483C28.7269 66.7645 29.3926 70.8036 30.0139 74.3645C30.5465 78.4461 31.878 80.4865 34.008 80.4865C35.1618 80.4865 35.8716 80.2263 36.1379 79.7053C36.4929 79.1842 36.6711 78.3588 36.6711 77.2297C36.6711 75.7534 36.4929 74.0601 36.1379 72.1496C35.8716 70.2389 35.7385 68.371 35.7385 66.5471C35.7385 63.3339 36.0939 59.9035 36.8039 56.2561C37.6028 52.6084 38.5788 49.0035 39.7326 45.4426C40.9752 41.8818 42.3067 38.625 43.7268 35.6721C45.1469 32.7192 46.5233 30.3739 47.8547 28.6369C49.2747 26.9002 50.5172 26.0315 51.5823 26.0315C52.2923 26.0315 52.8689 26.5097 53.3127 27.4651C53.8452 28.3335 54.1115 29.4623 54.1115 30.8518C54.1115 32.9362 53.7121 35.4555 52.9133 38.4084C52.1145 41.3612 51.1825 44.6182 50.1174 48.1789C49.1411 51.6529 48.2541 55.301 47.4553 59.1223C46.6565 62.8567 46.2571 66.591 46.2571 70.3254V73.1916C46.3458 74.4075 46.4339 75.233 46.5227 75.6672C46.6115 76.3619 46.7897 77.0135 47.0559 77.6213C47.4108 78.2289 47.8988 78.5323 48.5198 78.5324C49.141 78.5324 49.5404 78.0119 49.718 76.9699C49.8955 75.8409 50.0286 75.0585 50.1174 74.6242C50.7388 71.9319 52.1593 68.675 54.3782 64.8537C56.5971 61.0324 59.1709 57.5584 62.0998 54.4319C62.6324 53.8239 63.5203 52.8684 64.7629 51.5657C66.0055 50.2629 67.2929 49.0902 68.6242 48.0481C70.0442 46.9192 71.1096 46.3547 71.8196 46.3547C72.4406 46.3549 72.7512 46.7892 72.7512 47.6574C72.7512 48.4391 72.4849 49.6117 71.9524 51.175C71.5086 52.5646 70.6207 54.5627 69.2893 57.1682C68.0467 59.7736 66.582 62.7265 64.8957 66.0266C63.2981 69.3268 61.7454 72.7578 60.2365 76.3186C58.7277 79.7925 57.4844 83.1795 56.508 86.4797C55.5317 89.8668 55.0442 92.8635 55.0442 95.469C55.0442 96.4445 55.143 97.3672 55.3401 98.2375C51.4662 100.743 46.241 100.302 42.8469 96.9074L2.92893 56.9895C-0.976311 53.0842 -0.976311 46.7521 2.92893 42.8469L42.8469 2.92893Z" fill="#FF9500"/>
</svg>
